# xmcd
#
# Track frame offsets:
#	150
#	13181
#	25537
#	41622
#	54025
#	68212
#	80014
#	92358
#	103946
#	117969
#	133600
#	146631
#	158177
#	169761
#	180906
#	193111
#	205140
#	216404
#	228958
#	241041
#	253095
#	265194
#	276569
#	290953
#
# Disc length: 4025 seconds
#
# Revision: 1
# Processed by: cddbd v1.5.1PL0 Copyright (c) Steve Scherf et al.
# Submitted via: EasyCDDAExtractor 6.0.0.1
#
DISCID=5c0fb718
DTITLE=Ernst Mosch - Gold Edition cd2
DYEAR=2002
DGENRE=Blasmusik
TTITLE0=Leutnat Warst Du Einst..,Halloh Du Kleine Klingelfee,Ob Blond Ob Braun
TTITLE0=
TTITLE1=Ich Sing Meine Lied Heut Nur Dür Dich ,Du Schließ Deine Augen Zu,Zwei 
TTITLE1=Herzen Im Dreivierteltakt
TTITLE2=Wenn Die Kleine Veilchen Blühn , Die Ganze Welt Ist Himmelblau ,Mein K
TTITLE2=leine Mädi
TTITLE3=Mein Herz Ruft Immer Noch Nach Dir.., Das Lied Aus 
TTITLE4=Auch Du Wirst Mich Einmal Betrügen ,Salome , Im Casion Steht Ein Piano
TTITLE5=Im Prater Bühn Wieder Die Bäume , Wien Wird Bei Nacht Erst Schön , Mei
TTITLE5=n Liedeslied Nuß Ein Walzer Sein
TTITLE6=Einmal Möcht Ich Was Närisches Tun ,Da Geh Ich Zu Maxim ,Ja , Das Stud
TTITLE6=ium Der Weiber Ist Schwer
TTITLE7=Wenn Zwei Sich Liebenbist Du's Lachents Glück, Nur Die Liebe Mach Uns 
TTITLE7=Jung
TTITLE8=Gern Hab Ich Die Frauen Geküsst ,Hab' Ein Blaues Himmelbett
TTITLE9=Wer Hat Die Liebe Uns Ins Herz .. ,Meine Lippen , Sie Küssen So Heiß,H
TTITLE9=ab Nur Dich Allein
TTITLE10=Niemand Liebt Dich So Wie Ich ,Dein Ist Mein Ganzes Herz ,Wolga Lied
TTITLE11=Mädel Klein Mädel Fein ,Liebe Du Himmel Auf Erden
TTITLE12=Kleine Mädchen Müssen Schlafen Gehen,Untern Linden
TTITLE13=Du Machst Mir Schlaflose Nächte ,Pauline Geht Tanzen
TTITLE14=Was Eine Frau Im Frühling Träumt , Warte Warte Nur Ein Weilchen
TTITLE15=Marietta Du Kleine PrinzeßChen ,Wo Ist Das Herz , Das Ich Erlebte
TTITLE16=Zwei Rote Rosen , Alle Englein Lachen , Kind Ich Schlaf So Schlecht
TTITLE17=Mir Dir Möcht Ich Am Sontag Angeln Gehn ,  Das War In Schöne Berg
TTITLE18=Bis Früh Um Fünf , Die Liebes Insel , Berliner Luft 
TTITLE19=Lose Munt're Lieder O Theophil
TTITLE20=Hinter'm Ofen Sitzen ,Nimm Mich Mit ,Läß Den Kopf Nicht  Hängen,,
TTITLE21=Schlösser Die Im Mond Liegen , Es War Einmal 
TTITLE22=Schnek Mir Doch Ein Kleines Bisschen Liebe
TTITLE23=Ich Lass Mich Nicht Verführen
EXTD=
EXTT0=
EXTT1=
EXTT2=
EXTT3=
EXTT4=
EXTT5=
EXTT6=
EXTT7=
EXTT8=
EXTT9=
EXTT10=
EXTT11=
EXTT12=
EXTT13=
EXTT14=
EXTT15=
EXTT16=
EXTT17=
EXTT18=
EXTT19=
EXTT20=
EXTT21=
EXTT22=
EXTT23=
PLAYORDER=
